{"title":"Big 1988 EXTENDED BRRip XviD MP3-RARBG","uid":13552710,"size":1764675407,"categoryP":"video","categoryS":"movies","magnet":"?xt=urn:btih:0c65c61cd0814bc8268702763487d70bca1d0e9b&amp;dn=Big+1988+EXTENDED+BRRip+XviD+MP3-RARBG&amp;tr=udp%3A%2F%2Ftracker.leechers-paradise.org%3A6969&amp;tr=udp%3A%2F%2Fzer0day.ch%3A1337&amp;tr=udp%3A%2F%2Fopen.demonii.com%3A1337&amp;tr=udp%3A%2F%2Ftracker.coppersurfer.tk%3A6969&amp;tr=udp%3A%2F%2Fexodus.desync.com%3A6969","seeders":0,"leechers":1,"uploader":"roflcopter2110","files":4,"time":1455566130,"description":"Big.1988.EXTENDED.BRRip.XviD.MP3-RARBG\r\n\r\nMediainfo :\r\n\r\nVideo\r\nID : 0\r\nFormat : MPEG-4 Visual\r\nFormat profile :   \r\nFormat settings, BVOP : No\r\nFormat settings, QPel : No\r\nFormat settings, GMC : No warppoints\r\nFormat settings, Matrix : Default (H.263)\r\nCodec ID : XVID\r\nCodec ID/Hint : XviD\r\nDuration : 2h 10mn\r\nBit rate : 1 597 Kbps\r\nWidth : 720 pixels\r\nHeight : 390 pixels\r\nDisplay aspect ratio : 1.85:1\r\nFrame rate : 23.976 fps\r\nColor space : YUV\r\nChroma subsampling : 4:2:0\r\nBit depth : 8 bits\r\nScan type : Progressive\r\nCompression mode : Lossy\r\nBits/(Pixel*Frame) : 0.237\r\nStream size : 1.46 GiB (89%)\r\nTitle : RARBG.COM - Big.1988.EXTENDED.BRRip.XviD.MP3-RARBG\r\nWriting library : Lavc56.60.100\r\n\r\nAudio\r\nID : 1\r\nFormat : MPEG Audio\r\nFormat version : Version 1\r\nFormat profile : Layer 3\r\nMode : Joint stereo\r\nMode extension : MS Stereo\r\nCodec ID : 55\r\nCodec ID/Hint : MP3\r\nDuration : 2h 10mn\r\nBit rate mode : Constant\r\nBit rate : 192 Kbps\r\nChannel(s) : 2 channels\r\nSampling rate : 48.0 KHz\r\nCompression mode : Lossy\r\nStream size : 179 MiB (11%)\r\nAlignment : Aligned on interleaves\r\nInterleave, duration : 24 ms (0.58 video frame)\r\nInterleave, preload duration : 24 ms\r\nTitle : RARBG.COM - Big.1988.EXTENDED.BRRip.XviD.MP3-RARBG\r\nWriting library : LAME3.99.5","torrent":{"xt":"urn:btih:0c65c61cd0814bc8268702763487d70bca1d0e9b","amp;dn":"Big+1988+EXTENDED+BRRip+XviD+MP3-RARBG","amp;tr":["udp%3A%2F%2Ftracker.leechers-paradise.org%3A6969","udp%3A%2F%2Fzer0day.ch%3A1337","udp%3A%2F%2Fopen.demonii.com%3A1337","udp%3A%2F%2Ftracker.coppersurfer.tk%3A6969","udp%3A%2F%2Fexodus.desync.com%3A6969"],"infoHash":"0c65c61cd0814bc8268702763487d70bca1d0e9b","infoHashBuffer":{"type":"Buffer","data":[12,101,198,28,208,129,75,200,38,135,2,118,52,135,215,11,202,29,14,155]},"announce":[],"urlList":[]}}